<mxfile host="app.diagrams.net" modified="2023-06-07T00:48:13.354Z" agent="Mozilla/5.0 (Windows NT 10.0; Win64; x64) AppleWebKit/537.36 (KHTML, like Gecko) Chrome/114.0.0.0 Safari/537.36" etag="W7gr9F5qtzUC7lJf3Gb7" version="21.3.7" type="device">
  <diagram name="페이지-1" id="s3Gi-IUaLqUnBdrQD1ED">
    <mxGraphModel dx="1395" dy="657" grid="1" gridSize="10" guides="1" tooltips="1" connect="1" arrows="1" fold="1" page="1" pageScale="1" pageWidth="4681" pageHeight="3300" math="0" shadow="0">
      <root>
        <mxCell id="0" />
        <mxCell id="1" parent="0" />
        <mxCell id="hsQ2Z93O_LWTNkZIM1Nz-11" style="edgeStyle=orthogonalEdgeStyle;rounded=0;orthogonalLoop=1;jettySize=auto;html=1;entryX=0;entryY=0.5;entryDx=0;entryDy=0;" edge="1" parent="1" source="hsQ2Z93O_LWTNkZIM1Nz-1" target="hsQ2Z93O_LWTNkZIM1Nz-7">
          <mxGeometry relative="1" as="geometry" />
        </mxCell>
        <mxCell id="hsQ2Z93O_LWTNkZIM1Nz-1" value="관리자" style="shape=umlActor;verticalLabelPosition=bottom;verticalAlign=top;html=1;outlineConnect=0;" vertex="1" parent="1">
          <mxGeometry x="280" y="160" width="40" height="80" as="geometry" />
        </mxCell>
        <mxCell id="hsQ2Z93O_LWTNkZIM1Nz-12" style="edgeStyle=orthogonalEdgeStyle;rounded=0;orthogonalLoop=1;jettySize=auto;html=1;entryX=0;entryY=0.5;entryDx=0;entryDy=0;" edge="1" parent="1" source="hsQ2Z93O_LWTNkZIM1Nz-7" target="hsQ2Z93O_LWTNkZIM1Nz-8">
          <mxGeometry relative="1" as="geometry" />
        </mxCell>
        <mxCell id="hsQ2Z93O_LWTNkZIM1Nz-13" style="edgeStyle=orthogonalEdgeStyle;rounded=0;orthogonalLoop=1;jettySize=auto;html=1;entryX=0;entryY=0.5;entryDx=0;entryDy=0;" edge="1" parent="1" source="hsQ2Z93O_LWTNkZIM1Nz-7" target="hsQ2Z93O_LWTNkZIM1Nz-9">
          <mxGeometry relative="1" as="geometry" />
        </mxCell>
        <mxCell id="hsQ2Z93O_LWTNkZIM1Nz-14" style="edgeStyle=orthogonalEdgeStyle;rounded=0;orthogonalLoop=1;jettySize=auto;html=1;entryX=0;entryY=0.5;entryDx=0;entryDy=0;" edge="1" parent="1" source="hsQ2Z93O_LWTNkZIM1Nz-7" target="hsQ2Z93O_LWTNkZIM1Nz-10">
          <mxGeometry relative="1" as="geometry" />
        </mxCell>
        <mxCell id="hsQ2Z93O_LWTNkZIM1Nz-7" value="거래처 리스트 보기" style="ellipse;whiteSpace=wrap;html=1;" vertex="1" parent="1">
          <mxGeometry x="390" y="161" width="120" height="80" as="geometry" />
        </mxCell>
        <mxCell id="hsQ2Z93O_LWTNkZIM1Nz-18" style="edgeStyle=orthogonalEdgeStyle;rounded=0;orthogonalLoop=1;jettySize=auto;html=1;entryX=0;entryY=0.5;entryDx=0;entryDy=0;entryPerimeter=0;" edge="1" parent="1" source="hsQ2Z93O_LWTNkZIM1Nz-8" target="hsQ2Z93O_LWTNkZIM1Nz-15">
          <mxGeometry relative="1" as="geometry" />
        </mxCell>
        <mxCell id="hsQ2Z93O_LWTNkZIM1Nz-8" value="거래처 추가" style="ellipse;whiteSpace=wrap;html=1;" vertex="1" parent="1">
          <mxGeometry x="599" y="111" width="120" height="80" as="geometry" />
        </mxCell>
        <mxCell id="hsQ2Z93O_LWTNkZIM1Nz-16" style="edgeStyle=orthogonalEdgeStyle;rounded=0;orthogonalLoop=1;jettySize=auto;html=1;entryX=0;entryY=0.5;entryDx=0;entryDy=0;entryPerimeter=0;" edge="1" parent="1" source="hsQ2Z93O_LWTNkZIM1Nz-9" target="hsQ2Z93O_LWTNkZIM1Nz-15">
          <mxGeometry relative="1" as="geometry" />
        </mxCell>
        <mxCell id="hsQ2Z93O_LWTNkZIM1Nz-9" value="거래처 상세보기" style="ellipse;whiteSpace=wrap;html=1;" vertex="1" parent="1">
          <mxGeometry x="599" y="201" width="120" height="80" as="geometry" />
        </mxCell>
        <mxCell id="hsQ2Z93O_LWTNkZIM1Nz-17" style="edgeStyle=orthogonalEdgeStyle;rounded=0;orthogonalLoop=1;jettySize=auto;html=1;entryX=0;entryY=0.5;entryDx=0;entryDy=0;entryPerimeter=0;" edge="1" parent="1" source="hsQ2Z93O_LWTNkZIM1Nz-10" target="hsQ2Z93O_LWTNkZIM1Nz-15">
          <mxGeometry relative="1" as="geometry" />
        </mxCell>
        <mxCell id="hsQ2Z93O_LWTNkZIM1Nz-10" value="거래처 수정" style="ellipse;whiteSpace=wrap;html=1;" vertex="1" parent="1">
          <mxGeometry x="599" y="291" width="120" height="80" as="geometry" />
        </mxCell>
        <mxCell id="hsQ2Z93O_LWTNkZIM1Nz-15" value="거래처 정보 테이블" style="shape=cylinder3;whiteSpace=wrap;html=1;boundedLbl=1;backgroundOutline=1;size=15;" vertex="1" parent="1">
          <mxGeometry x="800" y="181" width="120" height="120" as="geometry" />
        </mxCell>
      </root>
    </mxGraphModel>
  </diagram>
</mxfile>
